<svg width="64" height="64" viewBox="0 0 64 64" fill="none" xmlns="http://www.w3.org/2000/svg">
<path d="M10.6667 50.6667H22.9333L6.98666 23.04C5.94666 21.3333 5.33333 19.44 5.33333 17.3333C5.33571 14.7395 6.28334 12.2356 7.99882 10.2901C9.7143 8.34464 12.08 7.09111 14.6531 6.76416C17.2262 6.43721 19.8302 7.05926 21.9778 8.51387C24.1253 9.96847 25.669 12.1559 26.32 14.6667H37.3333V7.99999C37.3333 5.06666 39.7333 2.66666 42.6667 2.66666V9.57332L46.9067 5.33332H58.6667V10.6667H49.0933L42.6667 17.0933V17.5733L49.0933 24H58.6667V29.3333H46.9067L42.6667 25.0933V32C41.2522 32 39.8956 31.4381 38.8954 30.4379C37.8952 29.4377 37.3333 28.0811 37.3333 26.6667V20H26.32C26.0533 21.04 25.6267 22.0267 25.0933 22.9333L41.0933 50.6667H53.3333C54.7478 50.6667 56.1044 51.2286 57.1046 52.2288C58.1048 53.229 58.6667 54.5855 58.6667 56V58.6667H5.33333V56C5.33333 53.0667 7.73333 50.6667 10.6667 50.6667ZM21.0933 26.6667C19.6 27.52 17.8667 28 16 28L29.0933 50.6667H34.9333L21.0933 26.6667ZM16 12C14.5855 12 13.229 12.5619 12.2288 13.5621C11.2286 14.5623 10.6667 15.9188 10.6667 17.3333C10.6667 20.2933 13.04 22.6667 16 22.6667C18.96 22.6667 21.3333 20.2933 21.3333 17.3333C21.3333 15.9188 20.7714 14.5623 19.7712 13.5621C18.771 12.5619 17.4145 12 16 12Z" fill="#818CF8"/>
</svg>
